<svg xmlns="http://www.w3.org/2000/svg" width="24" height="24" viewBox="0 0 24 24" fill="none">
    <g clip-path="url(#clip0_5155_4750)">
        <path d="M12 1.26465C12.1836 1.26465 12.3517 1.35993 12.4473 1.51465L12.4844 1.58496L15.2227 7.99414L15.3984 8.40625L15.8447 8.44727L22.7715 9.07617H22.7725C22.9561 9.09289 23.1143 9.20298 23.1943 9.36426L23.2236 9.43652V9.4375C23.2808 9.6135 23.2423 9.80325 23.125 9.94141L23.0693 9.99707V9.99805L17.833 14.5889L17.4971 14.8838L17.5957 15.3193L19.1396 22.1201C19.1806 22.3012 19.1246 22.4865 18.9951 22.6133L18.9355 22.6641C18.7858 22.7726 18.5938 22.7931 18.4287 22.7246L18.3594 22.6895L18.3584 22.6885L12.3848 19.1172L12 18.8877L11.6152 19.1172L5.63965 22.6885C5.55382 22.7398 5.46199 22.7646 5.37109 22.7646C5.29132 22.7646 5.21082 22.7462 5.13574 22.708L5.06348 22.6631C4.89347 22.5402 4.81247 22.3287 4.85938 22.1201L6.40332 15.3193L6.50195 14.8838L6.16602 14.5889L0.930664 9.99707L0.928711 9.99609L0.874023 9.94043C0.757975 9.80372 0.719053 9.61376 0.776367 9.4375C0.841939 9.23645 1.01842 9.09575 1.22852 9.07617L1.22754 9.0752L8.15625 8.44727L8.60156 8.40625L8.77734 7.99414L11.5166 1.58496C11.601 1.38866 11.7905 1.2647 12 1.26465Z" stroke="#262626" stroke-width="1.5"/>
    </g>
    <defs>
        <clipPath id="clip0_5155_4750">
            <rect width="24" height="24" fill="white"/>
        </clipPath>
    </defs>
</svg>