<svg width="23" height="22" viewBox="0 0 23 22" fill="none" xmlns="http://www.w3.org/2000/svg">
<path fill-rule="evenodd" clip-rule="evenodd" d="M18.0297 14.7347C17.9411 14.4643 17.6917 14.2812 17.4062 14.2812C17.1208 14.2812 16.8714 14.4643 16.7828 14.7347L16.1594 16.6454L14.2497 17.2665C13.9806 17.3545 13.7969 17.6065 13.7969 17.8906C13.7969 18.1748 13.9806 18.4268 14.2497 18.5147L16.1594 19.1359L16.7828 21.0465C16.8714 21.3169 17.1208 21.5 17.4062 21.5C17.6917 21.5 17.9411 21.3169 18.0297 21.0465L18.6531 19.1359L20.5628 18.5147C20.8319 18.4268 21.0156 18.1748 21.0156 17.8906C21.0156 17.6065 20.8319 17.3545 20.5628 17.2665L18.6531 16.6454L18.0297 14.7347ZM1 12.6403C1 13.1197 1.30842 13.5459 1.76452 13.6942L6.58469 15.2607L8.14986 20.0786C8.29751 20.5347 8.72406 20.8438 9.20312 20.8438C9.68219 20.8438 10.1087 20.535 10.2564 20.0786L11.8248 15.2607L16.6417 13.6942C17.0978 13.5459 17.4062 13.12 17.4062 12.6406C17.4062 12.1609 17.0978 11.7353 16.6417 11.587L11.8248 10.0205L10.2564 5.20269C10.1087 4.74627 9.68219 4.4375 9.20312 4.4375C8.72406 4.4375 8.29751 4.74659 8.14986 5.20269L6.58469 10.0205L1.76452 11.587C1.30842 11.7353 1 12.1606 1 12.6403ZM9.20312 6.20675L10.6797 10.7441C10.742 10.9439 10.8995 11.1004 11.0997 11.1654L15.6377 12.6406L11.0997 14.1159C10.8995 14.1808 10.742 14.3374 10.6797 14.5372L9.20312 19.0745L7.72656 14.5372C7.66422 14.3374 7.50671 14.1808 7.30655 14.1159L2.7686 12.6406L7.30655 11.1654C7.50671 11.1004 7.66422 10.9439 7.72656 10.7441L9.20312 6.20675ZM17.7016 0.953469C17.613 0.683094 17.3636 0.5 17.0781 0.5C16.7927 0.5 16.5433 0.683094 16.4547 0.953469L15.5097 3.85442L12.6091 4.79778C12.34 4.88572 12.1562 5.13772 12.1562 5.42188C12.1562 5.70603 12.34 5.95803 12.6091 6.04597L15.5097 6.98933L16.4547 9.89028C16.5433 10.1607 16.7927 10.3438 17.0781 10.3438C17.3636 10.3438 17.613 10.1607 17.7016 9.89028L18.6466 6.98933L21.5472 6.04597C21.8162 5.95803 22 5.70603 22 5.42188C22 5.13772 21.8162 4.88572 21.5472 4.79778L18.6466 3.85442L17.7016 0.953469ZM3.625 4.76562H2.96875C2.60781 4.76562 2.3125 5.05963 2.3125 5.42188C2.3125 5.78412 2.60781 6.07812 2.96875 6.07812H3.625V6.73438C3.625 7.09662 3.92031 7.39062 4.28125 7.39062C4.64219 7.39062 4.9375 7.09662 4.9375 6.73438V6.07812H5.59375C5.95469 6.07812 6.25 5.78412 6.25 5.42188C6.25 5.05963 5.95469 4.76562 5.59375 4.76562H4.9375V4.10938C4.9375 3.74712 4.64219 3.45312 4.28125 3.45312C3.92031 3.45312 3.625 3.74712 3.625 4.10938V4.76562Z" fill="#A5B4CB"/>
</svg>
