<svg width="28" height="28" viewBox="0 0 28 28" fill="none" xmlns="http://www.w3.org/2000/svg">
<g id="Iconly/Light/Image 2">
<g id="Image 2">
<path id="Stroke 1" fill-rule="evenodd" clip-rule="evenodd" d="M19.0208 3.20874H8.93032C5.41282 3.20874 3.20898 5.69841 3.20898 9.22174V18.7289C3.20898 22.2522 5.40348 24.7419 8.93032 24.7419H19.0197C22.5477 24.7419 24.7422 22.2522 24.7422 18.7289V9.22174C24.7422 5.69841 22.5477 3.20874 19.0208 3.20874Z" stroke="white" stroke-width="1.5" stroke-linecap="round" stroke-linejoin="round"/>
<path id="Stroke 3" fill-rule="evenodd" clip-rule="evenodd" d="M12.4873 10.2499C12.4873 11.4387 11.5225 12.4035 10.3337 12.4035C9.14599 12.4035 8.18115 11.4387 8.18115 10.2499C8.18115 9.06102 9.14599 8.09619 10.3337 8.09619C11.5225 8.09619 12.4873 9.06102 12.4873 10.2499Z" stroke="white" stroke-width="1.5" stroke-linecap="round" stroke-linejoin="round"/>
<path id="Stroke 5" d="M24.7415 17.4423C23.5818 16.4331 22.5727 15.2186 21.2427 14.4171C19.9103 13.6156 18.4788 14.1103 17.5548 15.3061C16.6623 16.4623 16.1047 18.0175 14.7572 18.7466C13.097 19.6461 12.1217 18.196 10.7368 17.615C9.191 16.9675 8.01733 18.1318 7.11433 19.2506C6.21017 20.3706 5.29433 21.479 4.375 22.5873" stroke="white" stroke-width="1.5" stroke-linecap="round" stroke-linejoin="round"/>
</g>
</g>
</svg>
