<svg width="23" height="22" viewBox="0 0 23 22" fill="none" xmlns="http://www.w3.org/2000/svg">
<path d="M15.6836 9.16732H17.5169C19.3503 9.16732 20.2669 8.25065 20.2669 6.41732V4.58398C20.2669 2.75065 19.3503 1.83398 17.5169 1.83398H15.6836C13.8503 1.83398 12.9336 2.75065 12.9336 4.58398V6.41732C12.9336 8.25065 13.8503 9.16732 15.6836 9.16732Z" stroke="#A5B4CB" stroke-width="1.5" stroke-miterlimit="10" stroke-linecap="round" stroke-linejoin="round"/>
<path d="M4.68359 20.1673H6.51693C8.35026 20.1673 9.26693 19.2507 9.26693 17.4173V15.584C9.26693 13.7507 8.35026 12.834 6.51693 12.834H4.68359C2.85026 12.834 1.93359 13.7507 1.93359 15.584V17.4173C1.93359 19.2507 2.85026 20.1673 4.68359 20.1673Z" stroke="#A5B4CB" stroke-width="1.5" stroke-miterlimit="10" stroke-linecap="round" stroke-linejoin="round"/>
<path d="M5.60026 9.16732C7.6253 9.16732 9.26693 7.5257 9.26693 5.50065C9.26693 3.47561 7.6253 1.83398 5.60026 1.83398C3.57522 1.83398 1.93359 3.47561 1.93359 5.50065C1.93359 7.5257 3.57522 9.16732 5.60026 9.16732Z" stroke="#A5B4CB" stroke-width="1.5" stroke-miterlimit="10" stroke-linecap="round" stroke-linejoin="round"/>
<path d="M16.6003 20.1673C18.6253 20.1673 20.2669 18.5257 20.2669 16.5007C20.2669 14.4756 18.6253 12.834 16.6003 12.834C14.5752 12.834 12.9336 14.4756 12.9336 16.5007C12.9336 18.5257 14.5752 20.1673 16.6003 20.1673Z" stroke="#A5B4CB" stroke-width="1.5" stroke-miterlimit="10" stroke-linecap="round" stroke-linejoin="round"/>
</svg>
