<svg width="140" height="104" viewBox="0 0 140 104" fill="none" xmlns="http://www.w3.org/2000/svg">
<path d="M116.5 78.8855C116.5 74.2414 114.397 70.0846 111.107 67.3001C113.25 61.9997 114.437 56.2219 114.437 50.1657C114.437 24.847 93.8625 4.33141 68.4938 4.33141C58.1968 4.33141 48.6972 7.71255 41.0418 13.4108C38.6993 12.3964 36.1275 11.8296 33.4062 11.8296C32.7284 11.8296 32.0605 11.8694 31.3927 11.939C31.5223 11.3224 31.602 10.686 31.602 10.0296C31.602 5.03748 27.545 1 22.551 1C17.547 1 13.5 5.04742 13.5 10.0296C13.5 13.7588 15.7727 16.9709 19.0123 18.3432C16.0319 21.7244 14.2077 26.1397 14.2077 31.0026C14.2077 37.6257 17.5769 43.4631 22.6906 46.9039C22.6108 47.9879 22.561 49.0718 22.561 50.1657C22.561 75.4845 43.1351 96 68.5038 96C76.7075 96 84.3929 93.842 91.0615 90.0929C93.7628 92.5492 97.3514 94.0708 101.299 94.0708C109.692 94.0608 116.5 87.2687 116.5 78.8855Z" fill="#E7E7E7"/>
<path d="M6.49481 0C3.19091 0 0.5 2.69091 0.5 5.99481C0.5 9.2987 3.19091 12 6.49481 12C9.7987 12 12.5 9.30909 12.5 5.99481C12.5 2.68052 9.80909 0 6.49481 0Z" fill="#E7E7E7"/>
<path d="M117 12C112.306 12 108.5 15.8061 108.5 20.5C108.5 25.1939 112.306 29 117 29C121.694 29 125.5 25.1939 125.5 20.5C125.5 15.8061 121.694 12 117 12Z" fill="#E7E7E7"/>
<path d="M118.5 104C122.366 104 125.5 100.866 125.5 97C125.5 93.134 122.366 90 118.5 90C114.634 90 111.5 93.134 111.5 97C111.5 100.866 114.634 104 118.5 104Z" fill="#E7E7E7"/>
<path d="M20 74C17.5169 74 15.5 76.0169 15.5 78.5C15.5 80.9831 17.5169 83 20 83C22.4831 83 24.5 80.9831 24.5 78.5C24.5 76.0169 22.4926 74 20 74Z" fill="#E7E7E7"/>
<path d="M135 90C132.517 90 130.5 92.0169 130.5 94.5C130.5 96.9831 132.517 99 135 99C137.483 99 139.5 96.9831 139.5 94.5C139.5 92.0169 137.483 90 135 90Z" fill="#E7E7E7"/>
<path d="M79.9014 68.7963L50.7121 39.5906C49.096 37.9742 49.096 35.3461 50.7121 33.7297L52.2291 32.2124C53.8452 30.5959 56.4726 30.5959 58.0887 32.2124L87.2879 61.4081C88.904 63.0246 88.904 65.6526 87.2879 67.2691L85.7709 68.7864C84.1548 70.4029 81.5175 70.4029 79.9014 68.7963Z" fill="white"/>
<path d="M83.386 71C81.5652 71 79.7444 70.3035 78.3515 68.9204L50.582 41.1393C47.806 38.3632 47.806 33.8557 50.582 31.0796C51.9252 29.7363 53.7062 29 55.6165 29C57.5268 29 59.3078 29.7363 60.651 31.0796L88.4205 58.8507C89.7637 60.194 90.5 61.9751 90.5 63.8856C90.5 65.796 89.7637 67.5771 88.4205 68.9204C87.0276 70.3035 85.2068 71 83.386 71ZM55.6165 32.7612C54.7111 32.7612 53.8753 33.1095 53.2485 33.7363C51.9351 35.0497 51.9351 37.1791 53.2485 38.4826L81.018 66.2537C82.3313 67.5672 84.4606 67.5572 85.764 66.2537C86.3908 65.6269 86.739 64.7811 86.739 63.8756C86.739 62.9702 86.3908 62.1343 85.764 61.5075L57.9845 33.7363C57.3577 33.1095 56.512 32.7612 55.6165 32.7612Z" fill="#262626"/>
<path d="M80.1852 47L87.5152 39.67C89.4949 37.6902 89.4949 34.455 87.5152 32.4848C85.5354 30.5051 82.3001 30.5051 80.33 32.4848L73 39.8148L80.1852 47Z" fill="#E7E7E7"/>
<path d="M81.9758 47.662C81.2366 48.401 80.0384 48.401 79.2992 47.662C78.5598 46.9228 78.5598 45.724 79.2992 44.9848L86.0221 38.2635C87.085 37.2009 86.8845 35.216 85.5809 33.9128C84.2874 32.6196 82.292 32.4192 81.2291 33.4818L74.5106 40.1986C73.7694 40.9396 72.5673 40.9373 71.829 40.1936C71.0942 39.4536 71.0965 38.2587 71.834 37.5214L78.5619 30.7951C81.1188 28.2389 85.4706 28.4393 88.2682 31.2262C91.0658 34.0231 91.2563 38.3738 88.7094 40.9301L81.9758 47.662Z" fill="#262626"/>
<path d="M65 61.1852L57.67 68.5152C55.6902 70.4949 52.455 70.4949 50.4848 68.5152C48.5051 66.5354 48.5051 63.3001 50.4848 61.33L57.8148 54L65 61.1852Z" fill="#E7E7E7"/>
<path d="M54.8931 72C53.0524 72 51.1618 71.2633 49.6991 69.7999C48.3857 68.4858 47.6096 66.7735 47.5101 64.9816C47.4106 63.11 48.0474 61.3778 49.321 60.1135L56.1014 53.3297C56.8353 52.5954 58.0256 52.5954 58.7594 53.3297C59.4928 54.0634 59.4928 55.2527 58.7594 55.9864L51.9777 62.7715C51.4802 63.2693 51.2215 63.9861 51.2713 64.7725C51.321 65.6386 51.7091 66.4848 52.3658 67.1419C53.6494 68.4261 55.6493 68.6053 56.7339 67.5202L63.5143 60.7364C64.2482 60.0021 65.4384 60.0021 66.1723 60.7364C66.9057 61.4701 66.9057 62.6593 66.1723 63.3931L59.3807 70.1882C58.1667 71.4027 56.5548 72 54.8931 72Z" fill="#262626"/>
</svg>
