<svg width="141" height="104" viewBox="0 0 141 104" fill="none" xmlns="http://www.w3.org/2000/svg">
<path d="M117 78.8855C117 74.2414 114.897 70.0846 111.607 67.3001C113.75 61.9997 114.937 56.2219 114.937 50.1657C114.937 24.847 94.3625 4.33141 68.9938 4.33141C58.6968 4.33141 49.1972 7.71255 41.5418 13.4108C39.1993 12.3964 36.6275 11.8296 33.9062 11.8296C33.2284 11.8296 32.5605 11.8694 31.8927 11.939C32.0223 11.3224 32.102 10.686 32.102 10.0296C32.102 5.03748 28.045 1 23.051 1C18.047 1 14 5.04742 14 10.0296C14 13.7588 16.2727 16.9709 19.5123 18.3432C16.5319 21.7244 14.7077 26.1397 14.7077 31.0026C14.7077 37.6257 18.0769 43.4631 23.1906 46.9039C23.1108 47.9879 23.061 49.0718 23.061 50.1657C23.061 75.4845 43.6351 96 69.0038 96C77.2075 96 84.8929 93.842 91.5615 90.0929C94.2628 92.5492 97.8514 94.0708 101.799 94.0708C110.192 94.0608 117 87.2687 117 78.8855Z" fill="#343F5A"/>
<path d="M6.99481 0C3.69091 0 1 2.69091 1 5.99481C1 9.2987 3.69091 12 6.99481 12C10.2987 12 13 9.30909 13 5.99481C13 2.68052 10.3091 0 6.99481 0Z" fill="#343F5A"/>
<path d="M117.5 12C112.806 12 109 15.8061 109 20.5C109 25.1939 112.806 29 117.5 29C122.194 29 126 25.1939 126 20.5C126 15.8061 122.194 12 117.5 12Z" fill="#343F5A"/>
<path d="M119 104C122.866 104 126 100.866 126 97C126 93.134 122.866 90 119 90C115.134 90 112 93.134 112 97C112 100.866 115.134 104 119 104Z" fill="#343F5A"/>
<path d="M20.5 74C18.0169 74 16 76.0169 16 78.5C16 80.9831 18.0169 83 20.5 83C22.9831 83 25 80.9831 25 78.5C25 76.0169 22.9926 74 20.5 74Z" fill="#343F5A"/>
<path d="M135.5 90C133.017 90 131 92.0169 131 94.5C131 96.9831 133.017 99 135.5 99C137.983 99 140 96.9831 140 94.5C140 92.0169 137.983 90 135.5 90Z" fill="#343F5A"/>
<path d="M80.4014 68.7963L51.2121 39.5906C49.596 37.9742 49.596 35.3461 51.2121 33.7297L52.7291 32.2124C54.3452 30.5959 56.9726 30.5959 58.5887 32.2124L87.7879 61.4081C89.404 63.0246 89.404 65.6526 87.7879 67.2691L86.2709 68.7864C84.6548 70.4029 82.0175 70.4029 80.4014 68.7963Z" fill="#343F5A"/>
<path d="M83.886 71C82.0652 71 80.2444 70.3035 78.8515 68.9204L51.082 41.1393C48.306 38.3632 48.306 33.8557 51.082 31.0796C52.4252 29.7363 54.2062 29 56.1165 29C58.0268 29 59.8078 29.7363 61.151 31.0796L88.9205 58.8507C90.2637 60.194 91 61.9751 91 63.8856C91 65.796 90.2637 67.5771 88.9205 68.9204C87.5276 70.3035 85.7068 71 83.886 71ZM56.1165 32.7612C55.2111 32.7612 54.3753 33.1095 53.7485 33.7363C52.4351 35.0497 52.4351 37.1791 53.7485 38.4826L81.518 66.2537C82.8313 67.5672 84.9606 67.5572 86.264 66.2537C86.8908 65.6269 87.239 64.7811 87.239 63.8756C87.239 62.9702 86.8908 62.1343 86.264 61.5075L58.4845 33.7363C57.8577 33.1095 57.012 32.7612 56.1165 32.7612Z" fill="#F1F5F9"/>
<path d="M80.6852 47L88.0152 39.67C89.9949 37.6902 89.9949 34.455 88.0152 32.4848C86.0354 30.5051 82.8001 30.5051 80.83 32.4848L73.5 39.8148L80.6852 47Z" fill="#343F5A"/>
<path d="M82.4758 47.662C81.7366 48.401 80.5384 48.401 79.7992 47.662C79.0598 46.9228 79.0598 45.724 79.7992 44.9848L86.5221 38.2635C87.585 37.2009 87.3845 35.216 86.0809 33.9128C84.7874 32.6196 82.792 32.4192 81.7291 33.4818L75.0106 40.1986C74.2694 40.9396 73.0673 40.9373 72.329 40.1936C71.5942 39.4536 71.5965 38.2587 72.334 37.5214L79.0619 30.7951C81.6188 28.2389 85.9706 28.4393 88.7682 31.2262C91.5658 34.0231 91.7563 38.3738 89.2094 40.9301L82.4758 47.662Z" fill="#F1F5F9"/>
<path d="M65.5 61.1852L58.17 68.5152C56.1902 70.4949 52.955 70.4949 50.9848 68.5152C49.0051 66.5354 49.0051 63.3001 50.9848 61.33L58.3148 54L65.5 61.1852Z" fill="#343F5A"/>
<path d="M55.3931 72C53.5524 72 51.6618 71.2633 50.1991 69.7999C48.8857 68.4858 48.1096 66.7735 48.0101 64.9816C47.9106 63.11 48.5474 61.3778 49.821 60.1135L56.6014 53.3297C57.3353 52.5954 58.5256 52.5954 59.2594 53.3297C59.9928 54.0634 59.9928 55.2527 59.2594 55.9864L52.4777 62.7715C51.9802 63.2693 51.7215 63.9861 51.7713 64.7725C51.821 65.6386 52.2091 66.4848 52.8658 67.1419C54.1494 68.4261 56.1493 68.6053 57.2339 67.5202L64.0143 60.7364C64.7482 60.0021 65.9384 60.0021 66.6723 60.7364C67.4057 61.4701 67.4057 62.6593 66.6723 63.3931L59.8807 70.1882C58.6667 71.4027 57.0548 72 55.3931 72Z" fill="#F1F5F9"/>
</svg>
