<svg width="121" height="106" viewBox="0 0 121 106" fill="none" xmlns="http://www.w3.org/2000/svg">
<path d="M64.269 91.9991C88.2988 91.9991 107.78 72.2415 107.78 47.7837C107.78 23.326 88.213 3.56836 64.269 3.56836C40.2391 3.56836 20.7578 23.326 20.7578 47.7837C20.7578 72.2415 40.2391 91.9991 64.269 91.9991Z" fill="#EAEEF9"/>
<path d="M104.946 18.8002C106.89 18.8002 108.465 17.2025 108.465 15.2317C108.465 13.2608 106.89 11.6631 104.946 11.6631C103.003 11.6631 101.428 13.2608 101.428 15.2317C101.428 17.2025 103.003 18.8002 104.946 18.8002Z" fill="#EAEEF9"/>
<path d="M110.096 4.87414C111.423 4.87414 112.499 3.78302 112.499 2.43707C112.499 1.09111 111.423 0 110.096 0C108.769 0 107.693 1.09111 107.693 2.43707C107.693 3.78302 108.769 4.87414 110.096 4.87414Z" fill="#EAEEF9"/>
<path d="M23.0729 18.714C24.4 18.714 25.4759 17.6229 25.4759 16.2769C25.4759 14.931 24.4 13.8398 23.0729 13.8398C21.7458 13.8398 20.6699 14.931 20.6699 16.2769C20.6699 17.6229 21.7458 18.714 23.0729 18.714Z" fill="#EAEEF9"/>
<path d="M12.9627 71.3967C15.4274 71.3967 17.4254 69.3703 17.4254 66.8707C17.4254 64.3711 15.4274 62.3447 12.9627 62.3447C10.498 62.3447 8.5 64.3711 8.5 66.8707C8.5 69.3703 10.498 71.3967 12.9627 71.3967Z" fill="#EAEEF9"/>
<g filter="url(#filter0_d_4268_7272)">
<path d="M110.576 67.4772H97.3757C96.7514 67.4772 96.2162 67.0702 96.0379 66.5274C94.7446 62.6378 91.8905 61.6881 84.9782 58.9292C84.5769 58.7482 84.5323 58.2055 84.9336 57.9794C86.9404 56.9844 86.5836 56.125 86.5836 50.155C86.4945 50.0645 86.4053 49.9288 86.3607 49.8384C85.9147 49.1599 85.6025 48.3458 85.5134 47.5317L85.0674 47.3056C83.7295 47.6222 83.8187 46.1749 83.462 43.3708C83.3282 42.1948 83.5066 41.9687 83.9971 41.7878L84.4431 41.1998C81.8119 35.2298 83.1498 31.4758 85.7363 30.119C84.889 28.2194 84.8444 27.541 84.8444 27.541C84.8444 27.541 90.3297 28.4908 92.2027 28.0838C94.6108 27.5862 98.2676 28.1742 99.6501 31.3854C101.924 32.2899 102.816 33.7825 103.039 35.3202C103.351 37.853 101.969 40.6119 101.701 41.6973C101.746 41.7426 101.746 41.7878 101.791 41.833C102.147 42.0139 102.281 42.3305 102.147 43.3255C101.835 45.994 101.88 47.6674 100.542 47.2604L99.3379 49.3861C99.2933 49.6574 99.2487 49.7479 99.2487 49.8836C99.2041 50.2906 99.2041 51.0595 99.2041 55.4918C99.2041 56.0346 99.3379 56.5321 99.6055 56.9391C99.8731 57.4366 100.319 57.7985 100.854 58.0246H100.899C104.02 59.3362 106.25 60.1955 107.9 60.874C111.557 62.3665 112.181 62.7735 112.494 65.2611C112.583 66.4822 111.735 67.4772 110.576 67.4772Z" fill="white"/>
</g>
<path d="M101.612 41.6514C101.745 40.973 101.433 40.1589 101.166 39.571C101.121 39.4805 101.076 39.39 101.032 39.2544C100.006 37.1287 97.6426 36.2241 95.4129 36.1336C89.7047 35.817 89.1695 36.9477 87.3857 35.2743C87.9209 36.1336 88.0101 37.4452 87.1182 39.1187C86.5384 40.2946 85.3789 40.7921 84.3532 41.1539C81.7667 35.1839 83.06 31.4299 85.6465 30.0731C84.7992 28.1735 84.7546 27.4951 84.7546 27.4951C84.7546 27.4951 90.2398 28.4449 92.1128 28.0379C94.521 27.5403 98.1778 28.1283 99.5602 31.3395C101.835 32.244 102.727 33.7366 102.949 35.2743C103.306 37.8071 101.879 40.566 101.612 41.6514Z" fill="url(#paint0_linear_4268_7272)"/>
<path opacity="0.1" d="M109.193 67.4773C110.575 65.3064 110.04 63.2711 107.811 60.874C111.467 62.3665 112.092 62.7736 112.404 65.2611C112.582 66.3918 111.69 67.4321 110.531 67.4321H109.193V67.4773Z" fill="#9AA2B2"/>
<path d="M99.5143 56.9851V58.0253H86.2695V56.6685C86.5817 55.9448 86.4925 55.99 86.4925 50.1557C86.4033 50.0652 86.3141 49.9295 86.2695 49.8391V49.5225C86.5371 50.02 86.9385 50.4722 87.3398 50.8341L91.4872 53.7739C92.4683 54.588 93.8507 54.6332 94.8318 53.8191L98.7116 50.2913C98.8454 50.1556 98.9792 50.0652 99.113 49.9295C99.0684 50.3366 99.0684 51.1054 99.0684 55.5378C99.113 56.0353 99.2468 56.5328 99.5143 56.9851Z" fill="url(#paint1_linear_4268_7272)"/>
<g filter="url(#filter1_d_4268_7272)">
<path d="M42.3438 57.3941C40.2032 57.3488 39.9802 56.9418 39.9802 56.9418V53.3236C42.2546 51.424 44.1722 49.2078 44.7073 46.3132C46.1344 45.9966 47.0263 44.685 46.8925 43.2377C46.8479 42.6045 46.4466 42.0166 46.402 41.3382C46.402 41.0216 46.402 40.705 46.402 40.3884C46.402 40.1622 46.402 39.9813 46.3574 39.7552C46.3574 39.529 46.3128 39.3029 46.3128 39.0768C46.179 37.9913 45.9114 36.8606 45.1979 35.549C43.4141 32.1569 39.8911 29.8955 35.9221 29.8955C35.1194 29.8955 34.3166 29.986 33.5585 30.1669C32.1315 30.4835 30.8382 31.1167 29.6787 32.0212C29.4557 32.2021 29.2328 32.383 29.0098 32.564C28.9652 32.6092 28.9206 32.6544 28.8314 32.6996C27.5827 33.8756 26.6016 35.3681 26.0665 37.0415C25.5314 38.7149 25.3976 40.4336 25.6206 42.1523C25.6206 42.1975 25.6206 42.2427 25.6206 42.2879C25.6206 42.3332 25.6206 42.3784 25.6206 42.4236C25.6651 42.7402 25.7543 42.695 25.5314 42.9664C25.4868 43.0568 25.3976 43.1473 25.353 43.283C25.0854 43.7805 24.8624 44.4589 25.1746 45.273C25.7097 46.8107 26.78 46.5846 27.7611 47.4439C27.7165 47.4892 27.6273 47.5344 27.5827 47.5344H27.5381L26.4233 47.8962C19.734 50.0219 18.9758 57.2131 25.8435 58.5248C25.353 58.57 24.907 58.8414 24.5949 59.0675C22.4097 60.7861 21.0272 63.4094 20.6705 65.9874C20.5367 66.7562 21.161 67.4799 21.9637 67.4799H32.5774C32.8004 67.4799 33.0234 67.299 33.1126 67.0728C34.0937 63.4546 36.3234 62.1882 40.9613 60.2886L43.6371 59.2032C44.083 59.0223 44.5736 58.8414 45.1087 58.6152C45.5993 58.4343 45.5547 57.7107 45.0195 57.575C44.4844 57.4393 43.9492 57.3941 43.4141 57.3488C42.9681 57.3941 42.6114 57.3941 42.3438 57.3941ZM28.7422 52.7808C28.7422 52.3285 29.0544 51.831 29.7233 51.2883C29.9909 51.6501 30.3477 52.0572 30.749 52.419C31.0612 52.6904 31.3733 52.9617 31.7301 53.2331C31.9531 53.3688 32.1761 53.5497 32.399 53.7306C32.4436 53.7758 32.4882 53.8211 32.5328 53.8211C32.5774 53.8663 32.6666 53.9115 32.7112 53.9567V56.1729C32.6666 56.1277 32.622 56.0825 32.5774 56.0825C32.3544 55.9015 32.1761 55.7206 31.9977 55.5849C31.6855 55.3588 31.3733 55.1779 31.0612 54.997C30.9274 54.9065 30.8382 54.8613 30.749 54.7708C29.7233 54.0924 28.7868 53.4592 28.7422 52.7808Z" fill="white"/>
</g>
<path d="M42.3457 57.395C41.989 58.7066 41.5876 59.5207 41.5876 59.5207L30.082 57.6664L30.751 54.7718C30.8402 54.8623 30.9739 54.9075 31.0631 54.9527C31.3753 55.1336 31.7321 55.3598 31.9996 55.5859C32.178 55.7216 32.401 55.8573 32.5794 56.0834C32.624 56.1287 32.6686 56.1739 32.6686 56.1739V53.9577C32.5794 53.9125 32.5348 53.8673 32.4902 53.822C34.3632 54.7718 36.6821 55.2693 40.0268 53.2793C39.9822 53.2793 39.9822 53.3245 39.9376 53.3245V56.9428C39.9376 56.9428 40.2052 57.3498 42.3457 57.395Z" fill="url(#paint2_linear_4268_7272)"/>
<path d="M46.3124 39.7559C44.3948 40.4343 42.3434 40.7056 40.292 40.5247C37.0811 40.2534 33.9594 38.9418 31.5513 36.7708C30.7486 39.1227 28.7418 40.8866 26.4674 41.9268C26.1553 42.0625 25.8431 42.1982 25.5309 42.2886C25.5309 42.2434 25.5309 42.1982 25.5309 42.1982C25.308 40.4795 25.4417 38.7608 25.9769 37.0874C26.512 35.414 27.4931 33.9215 28.7418 32.7455C28.7864 32.7003 28.831 32.6551 28.9202 32.6099C29.1432 32.4289 29.3661 32.248 29.5891 32.0671C30.7486 31.2078 32.0864 30.5746 33.4689 30.2128C34.2716 30.0319 35.0297 29.9414 35.8324 29.9414C39.8014 29.9414 43.3245 32.2028 45.1083 35.5949C45.7772 36.9065 46.0894 38.0372 46.2232 39.0774C46.3124 39.3036 46.3124 39.5297 46.3124 39.7559Z" fill="url(#paint3_linear_4268_7272)"/>
<path d="M29.8574 51.4238C30.125 51.7857 30.4372 52.1022 30.7047 52.3736C30.3926 52.1022 30.0804 51.7857 29.8574 51.4238Z" fill="#3973F4"/>
<path d="M34.0499 62.8664C33.2026 63.9519 31.5972 63.9971 30.2593 63.9519C31.6863 62.5498 30.8836 57.9818 25.889 58.5246H25.8444C18.9767 57.2129 19.7348 50.0217 26.3795 47.896L27.4944 47.5342C27.5836 47.5794 27.6282 47.6246 27.6728 47.7151C28.2079 49.1172 28.9214 50.2931 29.6796 51.2429C26.9592 53.5495 30.7498 54.2731 32.5782 56.037C34.1837 56.9868 35.5215 60.9669 34.0499 62.8664Z" fill="url(#paint4_linear_4268_7272)"/>
<path d="M29.8139 51.4244C29.7693 51.3793 29.7246 51.3342 29.7246 51.2891C29.7246 51.2891 29.7693 51.3793 29.8139 51.4244Z" fill="#3973F4"/>
<g filter="url(#filter2_d_4268_7272)">
<path d="M93.4964 69.5586C93.7193 71.2321 92.4261 72.7698 90.7315 72.7698H38.4657C36.7711 72.7698 35.4779 71.2321 35.7008 69.5586C36.1914 66.0761 36.9495 65.3524 42.0334 63.272L43.282 62.7745C45.6456 61.8247 48.7227 60.6487 52.87 58.8849C53.8065 58.4778 54.5647 57.7542 54.966 56.8044C55.189 56.3069 55.3228 55.7189 55.3228 55.1309V47.2161C55.189 47.0352 55.0552 46.8995 54.966 46.7186C54.2971 45.7235 53.8511 44.5476 53.7173 43.2812L53.0484 42.9646C51.0416 43.4622 51.22 41.2912 50.6849 37.1302C50.4619 35.4116 50.7295 35.0498 51.4876 34.7784L52.1119 33.9191C48.2767 25.0996 50.1943 19.5818 53.9849 17.637C52.8254 14.8329 52.7362 13.8379 52.7362 13.8379C52.7362 13.8379 60.808 15.1947 63.5729 14.652C67.0959 13.9283 72.5366 14.7877 74.5434 19.5366C77.888 20.8934 79.1813 23.0191 79.4934 25.371C79.984 29.0797 77.888 33.1502 77.4867 34.7332C77.5312 34.8236 77.5312 34.8689 77.5758 34.9141C78.111 35.1854 78.2894 35.6377 78.111 37.1302C77.6204 41.0651 77.7542 43.5074 75.7474 42.9646L73.9636 46.1306C73.8744 46.4924 73.8744 46.6281 73.8298 46.8995C73.7407 47.4874 73.7852 48.6634 73.7852 55.1309C73.7852 55.8998 74.0082 56.6687 74.4096 57.2567C74.8555 57.9351 75.4799 58.523 76.238 58.8396C76.2826 58.8396 76.2826 58.8396 76.3272 58.8849C80.9205 60.8297 84.2205 62.096 86.6287 63.0458C92.1139 65.2168 92.9612 65.8952 93.4964 69.5586Z" fill="white"/>
</g>
<path d="M77.5306 34.7332C77.7089 33.7382 77.263 32.517 76.9062 31.6577C76.8616 31.522 76.7724 31.3863 76.7278 31.2054C75.167 28.0394 71.7332 26.7731 68.4331 26.5922C60.0046 26.1399 59.2465 27.7681 56.6154 25.3258C57.4181 26.5922 57.5073 28.537 56.2586 30.9793C55.3667 32.6979 53.6721 33.4668 52.2004 33.9643C48.3652 25.1449 50.2828 19.6271 54.0734 17.6823C52.8248 14.8329 52.7356 13.8379 52.7356 13.8379C52.7356 13.8379 60.8073 15.1947 63.5722 14.652C67.0953 13.9283 72.5359 14.7877 74.5427 19.5366C77.8873 20.8934 79.1806 23.0191 79.4928 25.371C80.0279 29.0345 77.9319 33.105 77.5306 34.7332Z" fill="url(#paint5_linear_4268_7272)"/>
<path opacity="0.1" d="M88.7701 72.7256C90.8215 69.5597 90.0188 66.5746 86.7188 63.0469C92.1148 65.2178 93.0067 65.8962 93.4972 69.5145C93.7202 71.1879 92.427 72.7256 90.7323 72.7256H88.7701Z" fill="#9AA2B2"/>
<path d="M74.4533 57.258V58.7957H55.0098V56.8057C55.2327 56.3082 55.3665 55.7202 55.3665 55.1322V47.2174C55.2327 47.0365 55.099 46.9008 55.0098 46.7199V46.2676C55.4111 46.9912 55.9463 47.6696 56.6152 48.2124L62.7248 52.5543C64.1518 53.7754 66.2032 53.8206 67.6748 52.6447L73.383 47.4435C73.5614 47.2626 73.7844 47.0817 73.9628 46.9008C73.8736 47.4887 73.9182 48.6647 73.9182 55.1322C73.8736 55.9011 74.0966 56.6248 74.4533 57.258Z" fill="url(#paint6_linear_4268_7272)"/>
<path d="M79.7119 81.0293C79.4351 82.2223 79.0199 83.4855 78.5355 84.5381C77.2208 87.1347 75.1449 89.1698 72.5847 90.5032C69.9553 91.8366 66.8414 92.398 63.7276 91.6962C56.3929 90.1523 51.6876 82.8539 53.2099 75.4151C54.7322 67.9763 61.8593 63.1341 69.1941 64.7481C71.8235 65.3096 74.107 66.6429 76.0445 68.4675C79.2967 71.7659 80.6806 76.5379 79.7119 81.0293Z" fill="url(#paint7_linear_4268_7272)"/>
<path d="M70.7859 77.0278H67.6721V73.8698C67.6721 73.2382 67.1877 72.6768 66.4958 72.6768C65.873 72.6768 65.3194 73.168 65.3194 73.8698V77.0278H62.2056C61.5829 77.0278 61.0293 77.519 61.0293 78.2208C61.0293 78.9225 61.5137 79.4138 62.2056 79.4138H65.3194V82.5718C65.3194 83.2034 65.8038 83.7648 66.4958 83.7648C67.1185 83.7648 67.6721 83.2735 67.6721 82.5718V79.4138H70.7859C71.4087 79.4138 71.9622 78.9225 71.9622 78.2208C71.9622 77.519 71.4087 77.0278 70.7859 77.0278Z" fill="white"/>
<defs>
<filter id="filter0_d_4268_7272" x="61.0137" y="16.541" width="73.4863" height="83.9365" filterUnits="userSpaceOnUse" color-interpolation-filters="sRGB">
<feFlood flood-opacity="0" result="BackgroundImageFix"/>
<feColorMatrix in="SourceAlpha" type="matrix" values="0 0 0 0 0 0 0 0 0 0 0 0 0 0 0 0 0 0 127 0" result="hardAlpha"/>
<feOffset dy="11"/>
<feGaussianBlur stdDeviation="11"/>
<feColorMatrix type="matrix" values="0 0 0 0 0.397708 0 0 0 0 0.47749 0 0 0 0 0.575 0 0 0 0.27 0"/>
<feBlend mode="normal" in2="BackgroundImageFix" result="effect1_dropShadow_4268_7272"/>
<feBlend mode="normal" in="SourceGraphic" in2="effect1_dropShadow_4268_7272" result="shape"/>
</filter>
<filter id="filter1_d_4268_7272" x="-1.34766" y="18.8955" width="70.2539" height="81.584" filterUnits="userSpaceOnUse" color-interpolation-filters="sRGB">
<feFlood flood-opacity="0" result="BackgroundImageFix"/>
<feColorMatrix in="SourceAlpha" type="matrix" values="0 0 0 0 0 0 0 0 0 0 0 0 0 0 0 0 0 0 127 0" result="hardAlpha"/>
<feOffset dy="11"/>
<feGaussianBlur stdDeviation="11"/>
<feColorMatrix type="matrix" values="0 0 0 0 0.397708 0 0 0 0 0.47749 0 0 0 0 0.575 0 0 0 0.27 0"/>
<feBlend mode="normal" in2="BackgroundImageFix" result="effect1_dropShadow_4268_7272"/>
<feBlend mode="normal" in="SourceGraphic" in2="effect1_dropShadow_4268_7272" result="shape"/>
</filter>
<filter id="filter2_d_4268_7272" x="13.6758" y="2.83789" width="101.846" height="102.932" filterUnits="userSpaceOnUse" color-interpolation-filters="sRGB">
<feFlood flood-opacity="0" result="BackgroundImageFix"/>
<feColorMatrix in="SourceAlpha" type="matrix" values="0 0 0 0 0 0 0 0 0 0 0 0 0 0 0 0 0 0 127 0" result="hardAlpha"/>
<feOffset dy="11"/>
<feGaussianBlur stdDeviation="11"/>
<feColorMatrix type="matrix" values="0 0 0 0 0.397708 0 0 0 0 0.47749 0 0 0 0 0.575 0 0 0 0.27 0"/>
<feBlend mode="normal" in2="BackgroundImageFix" result="effect1_dropShadow_4268_7272"/>
<feBlend mode="normal" in="SourceGraphic" in2="effect1_dropShadow_4268_7272" result="shape"/>
</filter>
<linearGradient id="paint0_linear_4268_7272" x1="82.9342" y1="34.5748" x2="103.01" y2="34.5748" gradientUnits="userSpaceOnUse">
<stop stop-color="#B0BACC"/>
<stop offset="1" stop-color="#969EAE"/>
</linearGradient>
<linearGradient id="paint1_linear_4268_7272" x1="92.8959" y1="58.0771" x2="92.8959" y2="53.3929" gradientUnits="userSpaceOnUse">
<stop stop-color="white"/>
<stop offset="1" stop-color="#E2E5EC"/>
</linearGradient>
<linearGradient id="paint2_linear_4268_7272" x1="36.2176" y1="59.5587" x2="36.2176" y2="56.1204" gradientUnits="userSpaceOnUse">
<stop stop-color="white"/>
<stop offset="1" stop-color="#E2E5EC"/>
</linearGradient>
<linearGradient id="paint3_linear_4268_7272" x1="25.4182" y1="36.1164" x2="46.3162" y2="36.1164" gradientUnits="userSpaceOnUse">
<stop stop-color="#B0BACC"/>
<stop offset="1" stop-color="#969EAE"/>
</linearGradient>
<linearGradient id="paint4_linear_4268_7272" x1="21.027" y1="55.7504" x2="34.687" y2="55.7504" gradientUnits="userSpaceOnUse">
<stop stop-color="#B0BACC"/>
<stop offset="1" stop-color="#969EAE"/>
</linearGradient>
<linearGradient id="paint5_linear_4268_7272" x1="50.0939" y1="24.2878" x2="79.585" y2="24.2878" gradientUnits="userSpaceOnUse">
<stop stop-color="#B0BACC"/>
<stop offset="1" stop-color="#969EAE"/>
</linearGradient>
<linearGradient id="paint6_linear_4268_7272" x1="64.7374" y1="58.872" x2="64.7374" y2="51.9703" gradientUnits="userSpaceOnUse">
<stop stop-color="white"/>
<stop offset="1" stop-color="#E2E5EC"/>
</linearGradient>
<linearGradient id="paint7_linear_4268_7272" x1="52.9114" y1="78.2218" x2="80.0203" y2="78.2218" gradientUnits="userSpaceOnUse">
<stop stop-color="#B0BACC"/>
<stop offset="1" stop-color="#969EAE"/>
</linearGradient>
</defs>
</svg>
