<svg width="89" height="89" viewBox="0 0 89 89" fill="none" xmlns="http://www.w3.org/2000/svg">
<g clip-path="url(#clip0_8024_8798)">
<rect width="89" height="89" rx="44.5" fill="#AEAEAE"/>
<circle cx="15.2567" cy="19.0711" r="25.4286" fill="#8F8F8F"/>
<rect x="72.9502" y="50.2207" width="44.5" height="44.5" fill="#8F8F8F"/>
<path d="M62.9333 58.8333C62.9333 58.1 62.1333 57.1666 61.2666 57.1666H54.7999H53.3333V60.5H61.2666C62.1666 60.5 62.9333 59.7666 62.9333 58.8333Z" fill="#383838"/>
<path d="M62.7333 65.5H61.2333H53.3333V68.8333H54.7999H62.7333C63.9666 68.8333 64.9999 68.0667 64.9999 67.1667C64.9999 66.2667 63.9666 65.5 62.7333 65.5Z" fill="#383838"/>
<path d="M64.5001 34.3334H25.5001C17.8667 34.3334 11.6667 40.5 11.6667 48.1334V77.8667C11.6667 85.5 17.8667 91.6667 25.5001 91.6667H64.5001C72.1334 91.6667 78.3334 85.5 78.3334 77.8667V48.1334C78.3334 40.5 72.1334 34.3334 64.5001 34.3334ZM35.8334 65.5H22.5001C21.1334 65.5 20.0001 64.3667 20.0001 63C20.0001 61.6334 21.1334 60.5 22.5001 60.5H35.8334C37.2001 60.5 38.3334 61.6334 38.3334 63C38.3334 64.3667 37.2001 65.5 35.8334 65.5ZM62.7334 73.8334H59.2001V75.5C59.2001 76.8667 58.0667 78 56.7001 78C55.3334 78 54.2001 76.8667 54.2001 75.5V73.8334H50.8334H47.5001C46.1334 73.8334 45.0001 72.7 45.0001 71.3334C45.0001 69.9667 46.1334 68.8334 47.5001 68.8334H48.3334V63V57.1667H47.5001C46.1334 57.1667 45.0001 56.0334 45.0001 54.6667C45.0001 53.3 46.1334 52.1667 47.5001 52.1667H50.8334H54.2001V50.5C54.2001 49.1334 55.3334 48 56.7001 48C58.0667 48 59.2001 49.1334 59.2001 50.5V52.1667H61.2334C64.8001 52.1667 67.9001 55.2667 67.9001 58.8334C67.9001 59.9334 67.6001 60.9667 67.1334 61.9C68.8667 63.1334 70.0001 65.0334 70.0001 67.1667C70.0001 70.8334 66.7334 73.8334 62.7334 73.8334Z" fill="#383838"/>
</g>
<defs>
<clipPath id="clip0_8024_8798">
<rect width="89" height="89" rx="44.5" fill="white"/>
</clipPath>
</defs>
</svg>
