<svg width="23" height="22" viewBox="0 0 23 22" fill="none" xmlns="http://www.w3.org/2000/svg">
<path d="M11.8475 9.96482C11.7559 9.95565 11.6459 9.95565 11.545 9.96482C9.36336 9.89148 7.63086 8.10398 7.63086 5.90398C7.63086 3.65815 9.44586 1.83398 11.7009 1.83398C13.9467 1.83398 15.7709 3.65815 15.7709 5.90398C15.7617 8.10398 14.0292 9.89148 11.8475 9.96482Z" stroke="#A5B4CB" stroke-width="1.5" stroke-linecap="round" stroke-linejoin="round"/>
<path d="M7.26531 13.346C5.04698 14.831 5.04698 17.251 7.26531 18.7268C9.78615 20.4135 13.9203 20.4135 16.4411 18.7268C18.6595 17.2418 18.6595 14.8218 16.4411 13.346C13.9295 11.6685 9.79531 11.6685 7.26531 13.346Z" stroke="#A5B4CB" stroke-width="1.5" stroke-linecap="round" stroke-linejoin="round"/>
</svg>
