<svg width="24" height="24" viewBox="0 0 24 24" fill="none" xmlns="http://www.w3.org/2000/svg">
<g clip-path="url(#clip0_7250_7621)">
<path d="M21.3931 18.327C22.4902 17.4522 21.6464 13.3813 21.1278 11.9864L20.8408 11.3134C20.6543 10.8609 20.3723 10.5482 19.9182 10.3468C18.8606 9.87738 17.967 9.47505 17.1029 9.086C16.0524 8.61313 15.0604 8.16649 13.7993 7.6098C13.4009 7.43388 12.9867 7.34473 12.5681 7.34473C11.2571 7.34473 10.1686 8.18761 9.58382 8.6404C9.58382 8.6404 4.43144 12.8035 3.41241 13.1122C2.3833 13.4239 1.2354 13.4785 0.607422 13.4815V19.8015C2.78518 19.8719 4.31458 20.527 5.55697 21.0591C5.88089 21.1978 6.1868 21.3288 6.47818 21.4382C7.11275 21.6765 7.90665 21.7921 8.90538 21.7921C9.2931 21.7921 9.70424 21.7751 10.1598 21.7395C10.238 21.856 10.3347 21.9593 10.4491 22.0452C10.6719 22.2123 10.9363 22.3006 11.2137 22.3006C11.6996 22.3006 12.0993 21.9698 12.3749 21.6451L12.4222 21.8084C12.5 22.0771 12.6584 22.307 12.8803 22.4734C13.103 22.6405 13.3675 22.7289 13.6448 22.7289C14.5987 22.7289 15.2214 21.4541 15.2214 21.4541C15.2214 21.4541 15.3593 22.5305 15.8974 22.9248C16.1222 23.0893 16.3846 23.1802 16.6621 23.1802C17.0683 23.1802 17.4273 22.9833 17.6845 22.6694C19.1583 20.872 19.7517 17.9027 19.7517 17.9027C19.7517 17.9027 20.8025 18.7979 21.3931 18.327ZM17.6129 14.2289L18.6486 14.5781L19.3961 16.7874L17.6129 14.2289Z" fill="#F1F5F9"/>
<path d="M7.64602 1.99539C7.5648 2.11314 7.5067 2.25083 7.47514 2.40594C7.18316 3.83611 9.25376 6.84741 9.4909 7.186C9.60939 7.35533 9.83875 7.40061 10.012 7.29271C10.0179 7.28893 10.0238 7.28516 10.0296 7.28101C10.2046 7.15866 10.2472 6.91737 10.1247 6.74233C9.40678 5.71685 8.36974 3.92882 8.23265 2.93676L10.851 7.13116C11.3601 6.91285 11.9399 6.71521 12.5684 6.71521C13.0429 6.71521 13.5112 6.84704 13.9627 7.02534L9.69143 0.182308C9.57856 0.000970465 9.33987 -0.0543868 9.15853 0.0585509L7.52797 1.07447C7.34671 1.18756 7.29128 1.4261 7.40429 1.60744L7.64602 1.99539Z" fill="#F1F5F9"/>
<path d="M23.3765 23.5026L22.3398 20.022C22.3298 19.9889 22.3156 19.9571 22.2972 19.9278L21.6493 18.8894C21.5259 18.9168 21.3994 18.9342 21.2709 18.9409C21.2237 18.9432 21.1774 18.9445 21.1317 18.9445C20.7695 18.9445 20.4245 18.869 20.1141 18.7236C19.9657 19.2251 19.7548 19.8489 19.4746 20.4948L20.0103 21.353C20.0286 21.3823 20.0507 21.4091 20.0762 21.4324L22.7437 23.8971C22.8717 24.0154 23.0629 24.0334 23.2108 23.9413C23.3584 23.8493 23.4263 23.6695 23.3765 23.5026Z" fill="#F1F5F9"/>
</g>
<defs>
<clipPath id="clip0_7250_7621">
<rect width="24" height="24" fill="white"/>
</clipPath>
</defs>
</svg>
