<svg width="200" height="187" viewBox="0 0 200 187" fill="none" xmlns="http://www.w3.org/2000/svg">
<circle cx="100" cy="70" r="42" fill="url(#paint0_linear_7377_9792)"/>
<path fill-rule="evenodd" clip-rule="evenodd" d="M118.885 56.6834C119.838 57.5946 119.838 59.072 118.885 59.9833L99.3705 83.3166C98.4179 84.2278 96.8734 84.2278 95.9208 83.3166L83.0094 70.9665C82.0568 70.0553 82.0568 68.5779 83.0094 67.6667C83.9621 66.7554 85.5066 66.7554 86.4592 67.6667L97.6456 78.3668L115.436 56.6834C116.388 55.7722 117.933 55.7722 118.885 56.6834Z" fill="white"/>
<path fill-rule="evenodd" clip-rule="evenodd" d="M113.977 56.6198C115.344 55.3266 117.559 55.3266 118.926 56.6198C120.275 57.8972 120.292 59.9585 118.975 61.2551L100.351 83.289C100.324 83.3208 100.295 83.3512 100.265 83.38C98.8982 84.6732 96.6828 84.6732 95.3164 83.38L82.9701 71.6949C81.6037 70.4017 81.6037 68.3049 82.9701 67.0117C84.3365 65.7184 86.5519 65.7184 87.9183 67.0117L97.6851 76.2554L113.885 56.7189C113.913 56.6841 113.944 56.6511 113.977 56.6198Z" fill="white"/>
<circle cx="45.3996" cy="15.4001" r="9.8" fill="url(#paint1_linear_7377_9792)"/>
<circle cx="154.6" cy="33.5997" r="8.4" fill="url(#paint2_linear_7377_9792)"/>
<circle cx="45.4003" cy="109.2" r="5.6" fill="url(#paint3_linear_7377_9792)"/>
<circle cx="81.8006" cy="130.2" r="4.2" fill="url(#paint4_linear_7377_9792)"/>
<circle cx="152.5" cy="65.1" r="2.1" fill="url(#paint5_linear_7377_9792)"/>
<circle cx="148.3" cy="104.3" r="2.1" fill="url(#paint6_linear_7377_9792)"/>
<circle cx="121" cy="113.4" r="1.4" fill="url(#paint7_linear_7377_9792)"/>
<circle cx="102.8" cy="18.1998" r="1.4" fill="url(#paint8_linear_7377_9792)"/>
<circle cx="51.0001" cy="64.4" r="1.4" fill="url(#paint9_linear_7377_9792)"/>
<path d="M27.9343 182V169.636H32.2568C33.118 169.636 33.8284 169.785 34.3878 170.083C34.9472 170.377 35.3638 170.773 35.6374 171.272C35.9111 171.767 36.0479 172.317 36.0479 172.92C36.0479 173.452 35.9534 173.89 35.7642 174.237C35.5791 174.583 35.3336 174.856 35.0277 175.058C34.7259 175.259 34.3978 175.408 34.0437 175.504V175.625C34.422 175.649 34.8023 175.782 35.1847 176.023C35.567 176.265 35.887 176.611 36.1445 177.062C36.4021 177.513 36.5309 178.064 36.5309 178.716C36.5309 179.336 36.39 179.893 36.1083 180.388C35.8266 180.883 35.3819 181.276 34.7742 181.565C34.1664 181.855 33.3756 182 32.4016 182H27.9343ZM29.4315 180.672H32.4016C33.3796 180.672 34.0739 180.483 34.4844 180.104C34.8989 179.722 35.1062 179.259 35.1062 178.716C35.1062 178.297 34.9995 177.911 34.7862 177.557C34.5729 177.199 34.2691 176.913 33.8746 176.7C33.4802 176.482 33.0134 176.374 32.4741 176.374H29.4315V180.672ZM29.4315 175.07H32.2085C32.6592 175.07 33.0657 174.981 33.4279 174.804C33.7942 174.627 34.0839 174.377 34.2972 174.055C34.5146 173.733 34.6232 173.355 34.6232 172.92C34.6232 172.377 34.4341 171.916 34.0558 171.538C33.6774 171.156 33.0778 170.964 32.2568 170.964H29.4315V175.07ZM41.3565 182.217C40.7689 182.217 40.2356 182.107 39.7567 181.885C39.2777 181.66 38.8974 181.336 38.6157 180.913C38.334 180.487 38.1931 179.972 38.1931 179.368C38.1931 178.837 38.2977 178.406 38.507 178.076C38.7163 177.742 38.996 177.48 39.3462 177.291C39.6963 177.102 40.0827 176.961 40.5053 176.869C40.9319 176.772 41.3605 176.696 41.7911 176.639C42.3546 176.567 42.8114 176.512 43.1615 176.476C43.5157 176.436 43.7732 176.37 43.9342 176.277C44.0992 176.184 44.1817 176.023 44.1817 175.794V175.746C44.1817 175.15 44.0187 174.687 43.6928 174.357C43.3708 174.027 42.8818 173.862 42.2258 173.862C41.5456 173.862 41.0124 174.011 40.626 174.309C40.2396 174.607 39.968 174.925 39.811 175.263L38.4587 174.78C38.7002 174.216 39.0222 173.778 39.4246 173.464C39.8311 173.146 40.2738 172.924 40.7528 172.8C41.2357 172.671 41.7106 172.607 42.1775 172.607C42.4753 172.607 42.8174 172.643 43.2038 172.715C43.5941 172.784 43.9705 172.926 44.3327 173.144C44.6989 173.361 45.0028 173.689 45.2442 174.128C45.4857 174.567 45.6065 175.154 45.6065 175.891V182H44.1817V180.744H44.1093C44.0127 180.946 43.8517 181.161 43.6263 181.39C43.401 181.62 43.1011 181.815 42.7268 181.976C42.3526 182.137 41.8958 182.217 41.3565 182.217ZM41.5738 180.938C42.1372 180.938 42.6121 180.827 42.9985 180.605C43.3889 180.384 43.6827 180.098 43.8799 179.748C44.0811 179.398 44.1817 179.03 44.1817 178.643V177.339C44.1214 177.412 43.9886 177.478 43.7833 177.539C43.5821 177.595 43.3486 177.645 43.083 177.69C42.8214 177.73 42.5659 177.766 42.3163 177.798C42.0708 177.826 41.8716 177.851 41.7187 177.871C41.3484 177.919 41.0023 177.998 40.6803 178.106C40.3624 178.211 40.1048 178.37 39.9076 178.583C39.7144 178.792 39.6178 179.078 39.6178 179.44C39.6178 179.935 39.8009 180.31 40.1672 180.563C40.5374 180.813 41.0063 180.938 41.5738 180.938ZM51.8039 182.193C50.9346 182.193 50.186 181.988 49.5582 181.577C48.9303 181.167 48.4474 180.601 48.1093 179.881C47.7712 179.161 47.6022 178.338 47.6022 177.412C47.6022 176.47 47.7753 175.639 48.1214 174.919C48.4715 174.194 48.9585 173.629 49.5823 173.222C50.2102 172.812 50.9426 172.607 51.7798 172.607C52.4318 172.607 53.0193 172.727 53.5426 172.969C54.0658 173.21 54.4944 173.548 54.8284 173.983C55.1625 174.418 55.3697 174.925 55.4502 175.504H54.0255C53.9168 175.082 53.6754 174.707 53.3011 174.381C52.9308 174.051 52.4318 173.886 51.8039 173.886C51.2485 173.886 50.7615 174.031 50.343 174.321C49.9284 174.607 49.6045 175.011 49.371 175.534C49.1416 176.054 49.0269 176.663 49.0269 177.364C49.0269 178.08 49.1396 178.704 49.365 179.235C49.5944 179.766 49.9164 180.179 50.3309 180.473C50.7495 180.766 51.2405 180.913 51.8039 180.913C52.1742 180.913 52.5102 180.849 52.8121 180.72C53.1139 180.591 53.3695 180.406 53.5788 180.165C53.7881 179.923 53.937 179.634 54.0255 179.295H55.4502C55.3697 179.843 55.1705 180.336 54.8526 180.775C54.5386 181.209 54.1221 181.555 53.6029 181.813C53.0878 182.066 52.4881 182.193 51.8039 182.193ZM58.6911 178.619L58.6669 176.857H58.9567L63.0135 172.727H64.7763L60.4539 177.098H60.3331L58.6911 178.619ZM57.363 182V169.636H58.7877V182H57.363ZM63.255 182L59.6328 177.412L60.6471 176.422L65.0661 182H63.255ZM72.2838 178.209V172.727H73.7085V182H72.2838V180.43H72.1872C71.9699 180.901 71.6318 181.302 71.173 181.632C70.7142 181.958 70.1346 182.121 69.4344 182.121C68.8548 182.121 68.3397 181.994 67.8889 181.74C67.4381 181.483 67.084 181.096 66.8264 180.581C66.5688 180.062 66.44 179.408 66.44 178.619V172.727H67.8647V178.523C67.8647 179.199 68.0539 179.738 68.4322 180.141C68.8146 180.543 69.3015 180.744 69.8932 180.744C70.2473 180.744 70.6075 180.654 70.9738 180.473C71.344 180.292 71.6539 180.014 71.9035 179.64C72.157 179.265 72.2838 178.788 72.2838 178.209ZM76.148 185.477V172.727H77.5244V174.2H77.6934C77.7981 174.039 77.9429 173.834 78.1281 173.585C78.3172 173.331 78.5869 173.106 78.937 172.908C79.2912 172.707 79.7701 172.607 80.3738 172.607C81.1546 172.607 81.8428 172.802 82.4384 173.192C83.0341 173.583 83.4989 174.136 83.833 174.852C84.167 175.569 84.334 176.414 84.334 177.388C84.334 178.37 84.167 179.221 83.833 179.941C83.4989 180.658 83.0361 181.213 82.4445 181.608C81.8529 181.998 81.1707 182.193 80.398 182.193C79.8023 182.193 79.3254 182.095 78.9672 181.897C78.609 181.696 78.3333 181.469 78.1402 181.215C77.947 180.958 77.7981 180.744 77.6934 180.575H77.5727V185.477H76.148ZM77.5485 177.364C77.5485 178.064 77.6512 178.682 77.8564 179.217C78.0617 179.748 78.3615 180.165 78.7559 180.467C79.1503 180.764 79.6333 180.913 80.2048 180.913C80.8004 180.913 81.2975 180.756 81.6959 180.442C82.0984 180.125 82.4002 179.698 82.6014 179.163C82.8067 178.623 82.9093 178.024 82.9093 177.364C82.9093 176.712 82.8087 176.124 82.6075 175.601C82.4103 175.074 82.1104 174.657 81.708 174.351C81.3095 174.041 80.8085 173.886 80.2048 173.886C79.6252 173.886 79.1383 174.033 78.7438 174.327C78.3494 174.617 78.0516 175.023 77.8504 175.547C77.6491 176.066 77.5485 176.671 77.5485 177.364ZM97.5168 174.804L96.2369 175.166C96.1564 174.953 96.0377 174.746 95.8808 174.544C95.7278 174.339 95.5185 174.17 95.2529 174.037C94.9873 173.904 94.6472 173.838 94.2327 173.838C93.6652 173.838 93.1923 173.969 92.814 174.23C92.4397 174.488 92.2526 174.816 92.2526 175.214C92.2526 175.569 92.3814 175.848 92.6389 176.054C92.8965 176.259 93.299 176.43 93.8463 176.567L95.2227 176.905C96.0518 177.106 96.6696 177.414 97.0761 177.828C97.4826 178.239 97.6858 178.768 97.6858 179.416C97.6858 179.947 97.5329 180.422 97.227 180.841C96.9252 181.259 96.5026 181.589 95.9592 181.831C95.4159 182.072 94.7841 182.193 94.0636 182.193C93.1179 182.193 92.3351 181.988 91.7153 181.577C91.0955 181.167 90.7031 180.567 90.5381 179.778L91.8904 179.44C92.0191 179.939 92.2626 180.314 92.6208 180.563C92.983 180.813 93.4559 180.938 94.0395 180.938C94.7036 180.938 95.2308 180.797 95.6212 180.515C96.0156 180.229 96.2128 179.887 96.2128 179.489C96.2128 179.167 96.1001 178.897 95.8747 178.68C95.6493 178.458 95.3032 178.293 94.8364 178.185L93.2909 177.822C92.4417 177.621 91.8179 177.309 91.4195 176.887C91.0251 176.46 90.8279 175.927 90.8279 175.287C90.8279 174.764 90.9747 174.301 91.2685 173.898C91.5664 173.496 91.9708 173.18 92.482 172.951C92.9971 172.721 93.5807 172.607 94.2327 172.607C95.1503 172.607 95.8707 172.808 96.3939 173.21C96.9211 173.613 97.2954 174.144 97.5168 174.804ZM105.504 178.209V172.727H106.929V182H105.504V180.43H105.408C105.19 180.901 104.852 181.302 104.393 181.632C103.935 181.958 103.355 182.121 102.655 182.121C102.075 182.121 101.56 181.994 101.109 181.74C100.659 181.483 100.304 181.096 100.047 180.581C99.7892 180.062 99.6604 179.408 99.6604 178.619V172.727H101.085V178.523C101.085 179.199 101.274 179.738 101.653 180.141C102.035 180.543 102.522 180.744 103.114 180.744C103.468 180.744 103.828 180.654 104.194 180.473C104.564 180.292 104.874 180.014 105.124 179.64C105.377 179.265 105.504 178.788 105.504 178.209ZM113.135 182.193C112.266 182.193 111.518 181.988 110.89 181.577C110.262 181.167 109.779 180.601 109.441 179.881C109.103 179.161 108.934 178.338 108.934 177.412C108.934 176.47 109.107 175.639 109.453 174.919C109.803 174.194 110.29 173.629 110.914 173.222C111.542 172.812 112.274 172.607 113.111 172.607C113.763 172.607 114.351 172.727 114.874 172.969C115.397 173.21 115.826 173.548 116.16 173.983C116.494 174.418 116.701 174.925 116.782 175.504H115.357C115.248 175.082 115.007 174.707 114.633 174.381C114.262 174.051 113.763 173.886 113.135 173.886C112.58 173.886 112.093 174.031 111.674 174.321C111.26 174.607 110.936 175.011 110.703 175.534C110.473 176.054 110.358 176.663 110.358 177.364C110.358 178.08 110.471 178.704 110.696 179.235C110.926 179.766 111.248 180.179 111.662 180.473C112.081 180.766 112.572 180.913 113.135 180.913C113.506 180.913 113.842 180.849 114.144 180.72C114.445 180.591 114.701 180.406 114.91 180.165C115.12 179.923 115.268 179.634 115.357 179.295H116.782C116.701 179.843 116.502 180.336 116.184 180.775C115.87 181.209 115.454 181.555 114.934 181.813C114.419 182.066 113.82 182.193 113.135 182.193ZM122.461 182.193C121.592 182.193 120.844 181.988 120.216 181.577C119.588 181.167 119.105 180.601 118.767 179.881C118.429 179.161 118.26 178.338 118.26 177.412C118.26 176.47 118.433 175.639 118.779 174.919C119.129 174.194 119.616 173.629 120.24 173.222C120.868 172.812 121.6 172.607 122.437 172.607C123.089 172.607 123.677 172.727 124.2 172.969C124.723 173.21 125.152 173.548 125.486 173.983C125.82 174.418 126.027 174.925 126.108 175.504H124.683C124.574 175.082 124.333 174.707 123.959 174.381C123.588 174.051 123.089 173.886 122.461 173.886C121.906 173.886 121.419 174.031 121.001 174.321C120.586 174.607 120.262 175.011 120.029 175.534C119.799 176.054 119.685 176.663 119.685 177.364C119.685 178.08 119.797 178.704 120.023 179.235C120.252 179.766 120.574 180.179 120.988 180.473C121.407 180.766 121.898 180.913 122.461 180.913C122.832 180.913 123.168 180.849 123.47 180.72C123.772 180.591 124.027 180.406 124.236 180.165C124.446 179.923 124.595 179.634 124.683 179.295H126.108C126.027 179.843 125.828 180.336 125.51 180.775C125.196 181.209 124.78 181.555 124.261 181.813C123.745 182.066 123.146 182.193 122.461 182.193ZM131.908 182.193C131.015 182.193 130.244 181.996 129.596 181.602C128.952 181.203 128.455 180.648 128.105 179.935C127.759 179.219 127.586 178.386 127.586 177.436C127.586 176.486 127.759 175.649 128.105 174.925C128.455 174.196 128.942 173.629 129.566 173.222C130.194 172.812 130.926 172.607 131.763 172.607C132.246 172.607 132.723 172.687 133.194 172.848C133.665 173.009 134.094 173.271 134.48 173.633C134.866 173.991 135.174 174.466 135.404 175.058C135.633 175.649 135.748 176.378 135.748 177.243V177.847H128.6V176.615H134.299C134.299 176.092 134.194 175.625 133.985 175.214C133.78 174.804 133.486 174.48 133.104 174.243C132.725 174.005 132.279 173.886 131.763 173.886C131.196 173.886 130.705 174.027 130.29 174.309C129.88 174.587 129.564 174.949 129.343 175.396C129.121 175.842 129.011 176.321 129.011 176.832V177.653C129.011 178.354 129.131 178.947 129.373 179.434C129.618 179.917 129.958 180.286 130.393 180.539C130.828 180.789 131.333 180.913 131.908 180.913C132.283 180.913 132.621 180.861 132.923 180.756C133.228 180.648 133.492 180.487 133.713 180.273C133.935 180.056 134.106 179.786 134.227 179.464L135.603 179.851C135.458 180.318 135.215 180.728 134.872 181.082C134.53 181.433 134.108 181.706 133.605 181.903C133.102 182.097 132.536 182.193 131.908 182.193ZM144.313 174.804L143.033 175.166C142.953 174.953 142.834 174.746 142.677 174.544C142.524 174.339 142.315 174.17 142.049 174.037C141.784 173.904 141.444 173.838 141.029 173.838C140.462 173.838 139.989 173.969 139.61 174.23C139.236 174.488 139.049 174.816 139.049 175.214C139.049 175.569 139.178 175.848 139.435 176.054C139.693 176.259 140.095 176.43 140.643 176.567L142.019 176.905C142.848 177.106 143.466 177.414 143.873 177.828C144.279 178.239 144.482 178.768 144.482 179.416C144.482 179.947 144.329 180.422 144.023 180.841C143.722 181.259 143.299 181.589 142.756 181.831C142.212 182.072 141.581 182.193 140.86 182.193C139.914 182.193 139.132 181.988 138.512 181.577C137.892 181.167 137.5 180.567 137.335 179.778L138.687 179.44C138.816 179.939 139.059 180.314 139.417 180.563C139.78 180.813 140.252 180.938 140.836 180.938C141.5 180.938 142.027 180.797 142.418 180.515C142.812 180.229 143.009 179.887 143.009 179.489C143.009 179.167 142.897 178.897 142.671 178.68C142.446 178.458 142.1 178.293 141.633 178.185L140.087 177.822C139.238 177.621 138.614 177.309 138.216 176.887C137.822 176.46 137.624 175.927 137.624 175.287C137.624 174.764 137.771 174.301 138.065 173.898C138.363 173.496 138.767 173.18 139.278 172.951C139.794 172.721 140.377 172.607 141.029 172.607C141.947 172.607 142.667 172.808 143.19 173.21C143.718 173.613 144.092 174.144 144.313 174.804ZM153.025 174.804L151.745 175.166C151.665 174.953 151.546 174.746 151.389 174.544C151.236 174.339 151.027 174.17 150.761 174.037C150.496 173.904 150.156 173.838 149.741 173.838C149.174 173.838 148.701 173.969 148.322 174.23C147.948 174.488 147.761 174.816 147.761 175.214C147.761 175.569 147.89 175.848 148.147 176.054C148.405 176.259 148.807 176.43 149.355 176.567L150.731 176.905C151.56 177.106 152.178 177.414 152.584 177.828C152.991 178.239 153.194 178.768 153.194 179.416C153.194 179.947 153.041 180.422 152.735 180.841C152.433 181.259 152.011 181.589 151.468 181.831C150.924 182.072 150.292 182.193 149.572 182.193C148.626 182.193 147.843 181.988 147.224 181.577C146.604 181.167 146.211 180.567 146.046 179.778L147.399 179.44C147.527 179.939 147.771 180.314 148.129 180.563C148.491 180.813 148.964 180.938 149.548 180.938C150.212 180.938 150.739 180.797 151.129 180.515C151.524 180.229 151.721 179.887 151.721 179.489C151.721 179.167 151.608 178.897 151.383 178.68C151.158 178.458 150.812 178.293 150.345 178.185L148.799 177.822C147.95 177.621 147.326 177.309 146.928 176.887C146.533 176.46 146.336 175.927 146.336 175.287C146.336 174.764 146.483 174.301 146.777 173.898C147.075 173.496 147.479 173.18 147.99 172.951C148.505 172.721 149.089 172.607 149.741 172.607C150.659 172.607 151.379 172.808 151.902 173.21C152.429 173.613 152.804 174.144 153.025 174.804ZM159.298 172.727V173.935H154.299V172.727H159.298ZM155.797 182V171.447C155.797 170.916 155.921 170.473 156.171 170.119C156.42 169.765 156.744 169.5 157.143 169.322C157.541 169.145 157.962 169.057 158.405 169.057C158.755 169.057 159.04 169.085 159.262 169.141C159.483 169.198 159.648 169.25 159.757 169.298L159.346 170.53C159.274 170.506 159.173 170.475 159.044 170.439C158.92 170.403 158.755 170.385 158.549 170.385C158.079 170.385 157.738 170.504 157.529 170.741C157.324 170.979 157.221 171.327 157.221 171.786V182H155.797ZM166.968 178.209V172.727H168.393V182H166.968V180.43H166.872C166.655 180.901 166.316 181.302 165.858 181.632C165.399 181.958 164.819 182.121 164.119 182.121C163.539 182.121 163.024 181.994 162.574 181.74C162.123 181.483 161.769 181.096 161.511 180.581C161.254 180.062 161.125 179.408 161.125 178.619V172.727H162.549V178.523C162.549 179.199 162.739 179.738 163.117 180.141C163.499 180.543 163.986 180.744 164.578 180.744C164.932 180.744 165.292 180.654 165.658 180.473C166.029 180.292 166.339 180.014 166.588 179.64C166.842 179.265 166.968 178.788 166.968 178.209ZM172.257 169.636V182H170.833V169.636H172.257Z" fill="white"/>
<defs>
<linearGradient id="paint0_linear_7377_9792" x1="70.4687" y1="41.4707" x2="130.844" y2="101.846" gradientUnits="userSpaceOnUse">
<stop stop-color="#3B90FF"/>
<stop offset="1" stop-color="#C27DFF"/>
</linearGradient>
<linearGradient id="paint1_linear_7377_9792" x1="38.509" y1="8.74325" x2="52.5965" y2="22.8308" gradientUnits="userSpaceOnUse">
<stop stop-color="#3B90FF"/>
<stop offset="1" stop-color="#C27DFF"/>
</linearGradient>
<linearGradient id="paint2_linear_7377_9792" x1="148.694" y1="27.8938" x2="160.769" y2="39.9688" gradientUnits="userSpaceOnUse">
<stop stop-color="#3B90FF"/>
<stop offset="1" stop-color="#C27DFF"/>
</linearGradient>
<linearGradient id="paint3_linear_7377_9792" x1="41.4628" y1="105.396" x2="49.5128" y2="113.446" gradientUnits="userSpaceOnUse">
<stop stop-color="#3B90FF"/>
<stop offset="1" stop-color="#C27DFF"/>
</linearGradient>
<linearGradient id="paint4_linear_7377_9792" x1="78.8475" y1="127.347" x2="84.885" y2="133.385" gradientUnits="userSpaceOnUse">
<stop stop-color="#3B90FF"/>
<stop offset="1" stop-color="#C27DFF"/>
</linearGradient>
<linearGradient id="paint5_linear_7377_9792" x1="151.023" y1="63.6735" x2="154.042" y2="66.6923" gradientUnits="userSpaceOnUse">
<stop stop-color="#3B90FF"/>
<stop offset="1" stop-color="#C27DFF"/>
</linearGradient>
<linearGradient id="paint6_linear_7377_9792" x1="146.824" y1="102.874" x2="149.842" y2="105.892" gradientUnits="userSpaceOnUse">
<stop stop-color="#3B90FF"/>
<stop offset="1" stop-color="#C27DFF"/>
</linearGradient>
<linearGradient id="paint7_linear_7377_9792" x1="120.016" y1="112.449" x2="122.028" y2="114.462" gradientUnits="userSpaceOnUse">
<stop stop-color="#3B90FF"/>
<stop offset="1" stop-color="#C27DFF"/>
</linearGradient>
<linearGradient id="paint8_linear_7377_9792" x1="101.816" y1="17.2488" x2="103.829" y2="19.2613" gradientUnits="userSpaceOnUse">
<stop stop-color="#3B90FF"/>
<stop offset="1" stop-color="#C27DFF"/>
</linearGradient>
<linearGradient id="paint9_linear_7377_9792" x1="50.0157" y1="63.449" x2="52.0282" y2="65.4615" gradientUnits="userSpaceOnUse">
<stop stop-color="#3B90FF"/>
<stop offset="1" stop-color="#C27DFF"/>
</linearGradient>
</defs>
</svg>
