<svg width="65" height="64" viewBox="0 0 65 64" fill="none" xmlns="http://www.w3.org/2000/svg">
<path d="M52.5271 15.6002L36.6871 6.4535C34.1004 4.96016 30.9004 4.96016 28.2871 6.4535L12.4738 15.6002C9.88711 17.0935 8.28711 19.8668 8.28711 22.8802V41.1202C8.28711 44.1068 9.88711 46.8802 12.4738 48.4002L28.3138 57.5468C30.9004 59.0402 34.1004 59.0402 36.7138 57.5468L52.5538 48.4002C55.1404 46.9068 56.7404 44.1335 56.7404 41.1202V22.8802C56.7138 19.8668 55.1138 17.1202 52.5271 15.6002ZM32.5004 19.5735C35.9404 19.5735 38.7138 22.3468 38.7138 25.7868C38.7138 29.2268 35.9404 32.0002 32.5004 32.0002C29.0604 32.0002 26.2871 29.2268 26.2871 25.7868C26.2871 22.3735 29.0604 19.5735 32.5004 19.5735ZM39.6471 44.4268H25.3538C23.1938 44.4268 21.9404 42.0268 23.1404 40.2402C24.9538 37.5468 28.4738 35.7335 32.5004 35.7335C36.5271 35.7335 40.0471 37.5468 41.8604 40.2402C43.0604 42.0002 41.7804 44.4268 39.6471 44.4268Z" fill="url(#paint0_linear_7201_3898)"/>
<defs>
<linearGradient id="paint0_linear_7201_3898" x1="15.4794" y1="13.8863" x2="53.6369" y2="48.5524" gradientUnits="userSpaceOnUse">
<stop stop-color="#3B90FF"/>
<stop offset="1" stop-color="#C27DFF"/>
</linearGradient>
</defs>
</svg>
